<?xml version="1.0" standalone="no"?>
<!DOCTYPE svg PUBLIC "-//W3C//DTD SVG 20010904//EN"
 "http://www.w3.org/TR/2001/REC-SVG-20010904/DTD/svg10.dtd">
<svg version="1.0" xmlns="http://www.w3.org/2000/svg"
 width="600.000000pt" height="84.000000pt" viewBox="0 0 600.000000 84.000000"
 preserveAspectRatio="xMidYMid meet">

<g transform="translate(0.000000,84.000000) scale(0.100000,-0.100000)"
fill="#000000" stroke="none">
<path d="M35 818 c-37 -164 -51 -148 125 -148 115 0 150 -3 150 -13 0 -7 -29
-151 -65 -319 -36 -169 -65 -312 -65 -318 0 -6 31 -10 78 -10 66 0 82 3 97 20
13 14 39 116 84 328 l66 307 130 5 c74 3 139 10 151 17 25 14 49 62 59 116 l7
37 -406 0 -406 0 -5 -22z"/>
<path d="M960 788 c-59 -275 -160 -760 -160 -770 0 -10 71 -13 332 -11 384 2
380 1 398 86 5 26 10 55 10 62 0 13 -39 15 -260 15 -143 0 -260 3 -259 8 0 4
8 43 18 87 l17 80 180 3 c153 2 182 5 202 20 22 17 41 72 42 120 l0 23 -187
-1 c-104 0 -191 -1 -194 0 -4 0 1 35 10 78 l16 77 242 5 c239 5 242 5 267 29
15 14 31 43 37 65 5 23 12 49 15 59 5 16 -17 17 -354 17 l-360 0 -12 -52z"/>
<path d="M1839 838 c0 -2 -40 -187 -88 -413 l-88 -410 329 -3 c315 -2 331 -1
357 18 21 14 30 31 35 62 4 24 9 53 13 66 l5 22 -256 0 c-141 0 -256 2 -256 6
0 8 130 617 136 637 5 15 -4 17 -90 17 -53 0 -96 -1 -97 -2z"/>
<path d="M2655 828 c-4 -11 -175 -813 -175 -820 0 -2 151 -2 335 -1 319 2 337
3 364 22 22 16 30 32 36 67 3 26 9 53 12 60 4 12 -39 14 -256 14 -242 0 -261
1 -261 18 1 25 26 137 34 150 5 8 61 12 185 12 171 0 178 1 198 23 16 17 43
100 43 132 0 3 -88 5 -195 5 -107 0 -195 4 -195 9 0 5 7 41 16 80 l16 71 225
0 c184 0 231 3 258 16 36 17 59 55 70 117 l7 37 -356 0 c-276 0 -358 -3 -361
-12z"/>
<path d="M3597 828 c-89 -24 -151 -145 -152 -295 0 -62 3 -75 25 -99 40 -43
94 -61 265 -90 88 -14 175 -33 194 -40 32 -13 33 -16 28 -55 -10 -75 -4 -73
-320 -79 l-282 -5 -16 -77 c-9 -43 -14 -78 -10 -78 3 0 151 0 328 0 366 0 383
2 433 72 35 48 76 210 66 262 -17 87 -74 118 -299 157 -206 36 -223 43 -219
84 2 17 9 41 15 55 l12 25 252 5 c250 5 252 5 277 29 22 21 56 102 56 133 0
12 -608 8 -653 -4z"/>
<path d="M4603 738 c-36 -57 -139 -215 -228 -353 -107 -165 -169 -271 -183
-313 -11 -34 -18 -62 -14 -62 4 -1 46 -1 94 -1 l88 -1 234 131 c129 72 238
131 244 131 5 0 17 -39 26 -87 10 -49 22 -108 27 -133 l10 -45 82 2 c76 2 82
3 88 25 13 44 9 94 -17 211 -14 64 -24 123 -21 131 3 8 49 37 101 65 148 81
136 90 -40 31 -75 -26 -84 -27 -88 -12 -2 9 -19 82 -36 162 -17 80 -36 162
-41 183 l-10 37 -125 0 -125 0 -66 -102z m194 -201 c33 -168 44 -148 -114
-201 -75 -25 -139 -44 -141 -41 -2 2 47 85 109 184 63 99 116 177 119 175 2
-3 14 -55 27 -117z"/>
<path d="M5184 813 c-3 -16 -10 -44 -15 -63 -21 -84 -28 -80 141 -80 83 0 150
-4 150 -9 0 -7 -103 -495 -128 -608 l-10 -43 82 0 c49 1 87 6 98 13 11 9 36
104 83 322 36 171 69 313 73 317 4 3 64 8 134 10 118 3 128 5 152 27 22 21 56
102 56 133 0 4 -182 8 -405 8 l-405 0 -6 -27z"/>
<path d="M5662 97 c9 -7 18 -29 20 -48 4 -44 22 -44 26 0 2 19 11 41 20 48 15
10 10 12 -33 12 -43 0 -48 -2 -33 -12z"/>
<path d="M5752 63 c2 -27 8 -47 13 -45 6 2 9 12 8 23 -3 21 12 26 21 7 3 -9 9
-7 20 6 16 19 16 19 16 -6 0 -15 5 -30 10 -33 6 -4 10 13 10 44 0 55 -19 70
-37 29 l-10 -23 -12 23 c-6 12 -19 22 -27 22 -12 0 -14 -10 -12 -47z"/>
</g>
</svg>
